<svg width="64" height="64" viewBox="0 0 64 64" fill="none" xmlns="http://www.w3.org/2000/svg">
<path d="M17.333 41.3335H46.6663V43.3335C46.6663 43.9113 46.8557 44.3895 47.2343 44.7682C47.613 45.1468 48.0903 45.3353 48.6663 45.3335C49.2441 45.3335 49.7223 45.1442 50.101 44.7655C50.4797 44.3868 50.6681 43.9095 50.6663 43.3335V35.0668C50.6663 34.1335 50.4886 33.2562 50.133 32.4348C49.7775 31.6135 49.2886 30.8908 48.6663 30.2668V24.0002C48.6663 22.5335 48.1446 21.2784 47.101 20.2348C46.0575 19.1913 44.8015 18.6686 43.333 18.6668H34.6663C34.1775 18.6668 33.7108 18.7335 33.2663 18.8668C32.8219 19.0002 32.3997 19.2002 31.9997 19.4668C31.5997 19.2002 31.1775 19.0002 30.733 18.8668C30.2886 18.7335 29.8219 18.6668 29.333 18.6668H20.6663C19.1997 18.6668 17.9446 19.1895 16.901 20.2348C15.8575 21.2802 15.3348 22.5353 15.333 24.0002V30.2668C14.7108 30.8891 14.2219 31.6117 13.8663 32.4348C13.5108 33.2579 13.333 34.1353 13.333 35.0668V43.3335C13.333 43.9113 13.5223 44.3895 13.901 44.7682C14.2797 45.1468 14.757 45.3353 15.333 45.3335C15.9108 45.3335 16.389 45.1442 16.7677 44.7655C17.1463 44.3868 17.3348 43.9095 17.333 43.3335V41.3335ZM17.333 37.3335V34.6668C17.333 33.9113 17.589 33.2784 18.101 32.7682C18.613 32.2579 19.2459 32.0019 19.9997 32.0002H43.9997C44.7552 32.0002 45.389 32.2562 45.901 32.7682C46.413 33.2802 46.6681 33.9131 46.6663 34.6668V37.3335H17.333ZM19.333 28.0002V22.6668H29.9997V28.0002H19.333ZM33.9997 28.0002V22.6668H44.6663V28.0002H33.9997ZM10.6663 58.6668C9.19967 58.6668 7.94456 58.1451 6.90101 57.1015C5.85745 56.0579 5.33479 54.8019 5.33301 53.3335V10.6668C5.33301 9.20016 5.85567 7.94505 6.90101 6.9015C7.94634 5.85794 9.20145 5.33527 10.6663 5.3335H53.333C54.7997 5.3335 56.0557 5.85616 57.101 6.9015C58.1463 7.94683 58.6681 9.20194 58.6663 10.6668V53.3335C58.6663 54.8002 58.1446 56.0562 57.101 57.1015C56.0575 58.1468 54.8015 58.6686 53.333 58.6668H10.6663ZM10.6663 53.3335H53.333V10.6668H10.6663V53.3335Z" fill="white"/>
</svg>
