<svg width="56" height="56" viewBox="0 0 56 56" fill="none" xmlns="http://www.w3.org/2000/svg">
<path d="M49 21.0002V16.3335C49 12.4835 45.85 9.3335 42 9.3335H32.6667C30.87 9.3335 29.2367 10.0335 28 11.1535C26.7633 10.0335 25.13 9.3335 23.3333 9.3335H14C10.15 9.3335 7 12.4835 7 16.3335V21.0002C3.15 21.0002 0 24.1502 0 28.0002V39.6668C0 43.5168 3.15 46.6668 7 46.6668V51.3335H11.6667V46.6668H44.3333V51.3335H49V46.6668C52.85 46.6668 56 43.5168 56 39.6668V28.0002C56 24.1502 52.85 21.0002 49 21.0002ZM32.6667 14.0002H42C43.2833 14.0002 44.3333 15.0502 44.3333 16.3335V22.8202C42.91 24.1035 42 25.9468 42 28.0002V32.6668H30.3333V16.3335C30.3333 15.0502 31.3833 14.0002 32.6667 14.0002ZM11.6667 16.3335C11.6667 15.0502 12.7167 14.0002 14 14.0002H23.3333C24.6167 14.0002 25.6667 15.0502 25.6667 16.3335V32.6668H14V28.0002C14 25.9468 13.09 24.1035 11.6667 22.8202V16.3335ZM51.3333 39.6668C51.3333 40.9502 50.2833 42.0002 49 42.0002H7C5.71667 42.0002 4.66667 40.9502 4.66667 39.6668V28.0002C4.66667 26.7168 5.71667 25.6668 7 25.6668C8.28333 25.6668 9.33333 26.7168 9.33333 28.0002V37.3335H46.6667V28.0002C46.6667 26.7168 47.7167 25.6668 49 25.6668C50.2833 25.6668 51.3333 26.7168 51.3333 28.0002V39.6668Z" fill="#464646"/>
</svg>
