<svg width="64" height="64" viewBox="0 0 64 64" fill="none" xmlns="http://www.w3.org/2000/svg">
<path d="M21.3337 13.3335H26.667V21.3335H21.3337V13.3335ZM21.3337 32.0002H26.667V45.3335H21.3337V32.0002ZM48.0003 5.36016L16.0003 5.3335C14.5858 5.3335 13.2293 5.8954 12.2291 6.89559C11.2289 7.89579 10.667 9.25234 10.667 10.6668V53.3335C10.667 56.2668 13.067 58.6668 16.0003 58.6668H48.0003C50.9337 58.6668 53.3337 56.2668 53.3337 53.3335V10.6668C53.3337 7.70683 50.9337 5.36016 48.0003 5.36016ZM48.0003 53.3335H16.0003V29.2802H48.0003V53.3335ZM48.0003 24.0002H16.0003V10.6668H48.0003V24.0002Z" fill="white"/>
</svg>
