<svg width="32" height="32" viewBox="0 0 32 32" fill="none" xmlns="http://www.w3.org/2000/svg">
<path d="M26.667 5.33301H5.33366C3.86699 5.33301 2.66699 6.53301 2.66699 7.99967V23.9997C2.66699 25.4663 3.86699 26.6663 5.33366 26.6663H26.667C28.1337 26.6663 29.3337 25.4663 29.3337 23.9997V7.99967C29.3337 6.53301 28.1337 5.33301 26.667 5.33301ZM26.1337 10.9997L17.4137 16.453C16.547 16.9997 15.4537 16.9997 14.587 16.453L5.86699 10.9997C5.7333 10.9246 5.61622 10.8232 5.52284 10.7016C5.42947 10.58 5.36174 10.4407 5.32376 10.2922C5.28578 10.1436 5.27833 9.98892 5.30187 9.83742C5.32541 9.68591 5.37944 9.54076 5.4607 9.41074C5.54196 9.28073 5.64876 9.16855 5.77463 9.081C5.9005 8.99345 6.04282 8.93236 6.19299 8.90141C6.34315 8.87046 6.49804 8.8703 6.64826 8.90094C6.79849 8.93158 6.94094 8.99239 7.06699 9.07967L16.0003 14.6663L24.9337 9.07967C25.0597 8.99239 25.2022 8.93158 25.3524 8.90094C25.5026 8.8703 25.6575 8.87046 25.8077 8.90141C25.9578 8.93236 26.1002 8.99345 26.226 9.081C26.3519 9.16855 26.4587 9.28073 26.5399 9.41074C26.6212 9.54076 26.6752 9.68591 26.6988 9.83742C26.7223 9.98892 26.7149 10.1436 26.6769 10.2922C26.6389 10.4407 26.5712 10.58 26.4778 10.7016C26.3844 10.8232 26.2674 10.9246 26.1337 10.9997Z" fill="white"/>
</svg>
