<svg width="57" height="57" viewBox="0 0 57 57" fill="none" xmlns="http://www.w3.org/2000/svg">
<rect x="1.5" y="1.5" width="54" height="54" rx="27" fill="#3CB51D"/>
<rect x="1.5" y="1.5" width="54" height="54" rx="27" stroke="#A2FF8A" stroke-width="3"/>
<path d="M35.23 33.2598L32.69 32.9698C32.3914 32.9347 32.0886 32.9678 31.8046 33.0665C31.5206 33.1652 31.2626 33.327 31.05 33.5398L29.21 35.3798C26.3712 33.936 24.0638 31.6286 22.62 28.7898L24.47 26.9398C24.9 26.5098 25.11 25.9098 25.04 25.2998L24.75 22.7798C24.6933 22.2919 24.4592 21.842 24.0923 21.5156C23.7253 21.1892 23.2511 21.0092 22.76 21.0098H21.03C19.9 21.0098 18.96 21.9498 19.03 23.0798C19.56 31.6198 26.39 38.4398 34.92 38.9698C36.05 39.0398 36.99 38.0998 36.99 36.9698V35.2398C37 34.2298 36.24 33.3798 35.23 33.2598Z" fill="white"/>
</svg>
