<svg width="64" height="64" viewBox="0 0 64 64" fill="none" xmlns="http://www.w3.org/2000/svg">
<path d="M42.6667 16.0002V32.0002C42.6667 34.9335 45.0667 37.3335 48 37.3335H50.6667V56.0002C50.6667 57.4668 51.8667 58.6668 53.3333 58.6668C54.8 58.6668 56 57.4668 56 56.0002V8.34683C56 6.6135 54.3733 5.3335 52.6933 5.7335C46.9333 7.14683 42.6667 12.0268 42.6667 16.0002ZM29.3333 24.0002H24V8.00016C24 6.5335 22.8 5.3335 21.3333 5.3335C19.8667 5.3335 18.6667 6.5335 18.6667 8.00016V24.0002H13.3333V8.00016C13.3333 6.5335 12.1333 5.3335 10.6667 5.3335C9.2 5.3335 8 6.5335 8 8.00016V24.0002C8 29.8935 12.7733 34.6668 18.6667 34.6668V56.0002C18.6667 57.4668 19.8667 58.6668 21.3333 58.6668C22.8 58.6668 24 57.4668 24 56.0002V34.6668C29.8933 34.6668 34.6667 29.8935 34.6667 24.0002V8.00016C34.6667 6.5335 33.4667 5.3335 32 5.3335C30.5333 5.3335 29.3333 6.5335 29.3333 8.00016V24.0002Z" fill="#464646"/>
</svg>
