<svg width="64" height="64" viewBox="0 0 64 64" fill="none" xmlns="http://www.w3.org/2000/svg">
<path d="M5.33301 53.3332V23.9998C5.33301 22.5853 5.89491 21.2288 6.8951 20.2286C7.8953 19.2284 9.25185 18.6665 10.6663 18.6665H53.333C54.7475 18.6665 56.104 19.2284 57.1042 20.2286C58.1044 21.2288 58.6663 22.5853 58.6663 23.9998V53.3332C58.6663 54.7477 58.1044 56.1042 57.1042 57.1044C56.104 58.1046 54.7475 58.6665 53.333 58.6665H10.6663C9.25185 58.6665 7.8953 58.1046 6.8951 57.1044C5.89491 56.1042 5.33301 54.7477 5.33301 53.3332Z" stroke="white" stroke-width="6.69"/>
<path d="M22.666 6.6665L31.9993 15.9998L41.3327 6.6665" stroke="white" stroke-width="6.69" stroke-linecap="round" stroke-linejoin="round"/>
</svg>
