<svg width="64" height="64" viewBox="0 0 64 64" fill="none" xmlns="http://www.w3.org/2000/svg">
<path d="M32 55.9998C30.1333 55.9998 28.5556 55.3554 27.2667 54.0665C25.9778 52.7776 25.3333 51.1998 25.3333 49.3332C25.3333 47.4665 25.9778 45.8887 27.2667 44.5998C28.5556 43.3109 30.1333 42.6665 32 42.6665C33.8667 42.6665 35.4444 43.3109 36.7333 44.5998C38.0222 45.8887 38.6667 47.4665 38.6667 49.3332C38.6667 51.1998 38.0222 52.7776 36.7333 54.0665C35.4444 55.3554 33.8667 55.9998 32 55.9998ZM16.9333 40.9332L11.3333 35.1998C13.9556 32.5776 17.0338 30.5003 20.568 28.9678C24.1022 27.4354 27.9129 26.6683 32 26.6665C36.0889 26.6665 39.9004 27.4443 43.4347 28.9998C46.9689 30.5554 50.0462 32.6665 52.6667 35.3332L47.0667 40.9332C45.1111 38.9776 42.8444 37.4443 40.2667 36.3332C37.6889 35.2221 34.9333 34.6665 32 34.6665C29.0667 34.6665 26.3111 35.2221 23.7333 36.3332C21.1556 37.4443 18.8889 38.9776 16.9333 40.9332ZM5.6 29.5998L0 23.9998C4.08889 19.8221 8.86667 16.5554 14.3333 14.1998C19.8 11.8443 25.6889 10.6665 32 10.6665C38.3111 10.6665 44.2 11.8443 49.6667 14.1998C55.1333 16.5554 59.9111 19.8221 64 23.9998L58.4 29.5998C54.9778 26.1776 51.0116 23.5003 46.5013 21.5678C41.9911 19.6354 37.1573 18.6683 32 18.6665C26.8444 18.6665 22.0116 19.6336 17.5013 21.5678C12.9911 23.5021 9.024 26.1794 5.6 29.5998Z" fill="white"/>
</svg>
