<svg width="99" height="59" viewBox="0 0 99 59" fill="none" xmlns="http://www.w3.org/2000/svg">
<rect x="0.5" y="1" width="98" height="57" stroke="white"/>
<path d="M8.5625 22.5H7.44886L11.6818 10.8636H12.8182L17.0511 22.5H15.9375L12.2898 12.2443H12.2102L8.5625 22.5ZM9.36364 18.0398H15.1364V18.9943H9.36364V18.0398ZM19.7952 25.7727V13.7727H20.7782V15.4375H20.8975C21.0187 15.1761 21.1854 14.9091 21.3975 14.6364C21.6096 14.3598 21.8899 14.1269 22.2384 13.9375C22.5907 13.7481 23.0339 13.6534 23.568 13.6534C24.2877 13.6534 24.9164 13.8428 25.4543 14.2216C25.996 14.5966 26.4164 15.1231 26.7157 15.8011C27.0187 16.4754 27.1702 17.2614 27.1702 18.1591C27.1702 19.0606 27.0187 19.8504 26.7157 20.5284C26.4164 21.2064 25.996 21.7348 25.4543 22.1136C24.9164 22.4924 24.2914 22.6818 23.5793 22.6818C23.0528 22.6818 22.6115 22.5871 22.2555 22.3977C21.9032 22.2083 21.6172 21.9754 21.3975 21.6989C21.1816 21.4186 21.0149 21.1458 20.8975 20.8807H20.8066V25.7727H19.7952ZM20.7952 18.142C20.7952 18.8466 20.8994 19.4716 21.1077 20.017C21.3198 20.5587 21.6229 20.9848 22.0168 21.2955C22.4145 21.6023 22.8956 21.7557 23.46 21.7557C24.0395 21.7557 24.5282 21.5966 24.9259 21.2784C25.3274 20.9564 25.6323 20.5227 25.8407 19.9773C26.0528 19.4318 26.1589 18.8201 26.1589 18.142C26.1589 17.4716 26.0547 16.8674 25.8464 16.3295C25.6418 15.7917 25.3388 15.3655 24.9373 15.0511C24.5358 14.733 24.0433 14.5739 23.46 14.5739C22.8918 14.5739 22.4089 14.7273 22.0111 15.0341C21.6134 15.3371 21.3104 15.7576 21.102 16.2955C20.8975 16.8295 20.7952 17.4451 20.7952 18.142ZM32.7865 22.6989C32.26 22.6989 31.7789 22.5966 31.3433 22.392C30.9077 22.1837 30.5611 21.8845 30.3035 21.4943C30.0459 21.1004 29.9172 20.6231 29.9172 20.0625C29.9172 19.6307 29.9986 19.267 30.1615 18.9716C30.3244 18.6761 30.5554 18.4337 30.8547 18.2443C31.1539 18.0549 31.5081 17.9053 31.9172 17.7955C32.3263 17.6856 32.777 17.6004 33.2694 17.5398C33.7581 17.4792 34.1709 17.4261 34.5081 17.3807C34.849 17.3352 35.1084 17.2633 35.2865 17.1648C35.4645 17.0663 35.5535 16.9072 35.5535 16.6875V16.483C35.5535 15.8883 35.3755 15.4205 35.0194 15.0795C34.6672 14.7348 34.1596 14.5625 33.4967 14.5625C32.8679 14.5625 32.3547 14.7008 31.9569 14.9773C31.563 15.2538 31.2865 15.5795 31.1274 15.9545L30.1672 15.608C30.3641 15.1307 30.6369 14.75 30.9853 14.4659C31.3338 14.178 31.724 13.9716 32.1558 13.8466C32.5876 13.7178 33.0251 13.6534 33.4683 13.6534C33.8016 13.6534 34.1482 13.697 34.5081 13.7841C34.8717 13.8712 35.2088 14.0227 35.5194 14.2386C35.83 14.4508 36.0819 14.7481 36.2751 15.1307C36.4683 15.5095 36.5649 15.9905 36.5649 16.5739V22.5H35.5535V21.1193H35.491C35.3698 21.3769 35.1899 21.6269 34.9513 21.8693C34.7126 22.1117 34.4134 22.3106 34.0535 22.4659C33.6937 22.6212 33.2713 22.6989 32.7865 22.6989ZM32.9228 21.7727C33.4607 21.7727 33.9266 21.6534 34.3206 21.4148C34.7145 21.1761 35.0175 20.8598 35.2297 20.4659C35.4456 20.0682 35.5535 19.6307 35.5535 19.1534V17.892C35.4778 17.964 35.3509 18.0284 35.1728 18.0852C34.9986 18.142 34.7959 18.1932 34.5649 18.2386C34.3376 18.2803 34.1103 18.3163 33.8831 18.3466C33.6558 18.3769 33.4513 18.4034 33.2694 18.4261C32.777 18.4867 32.3566 18.5814 32.0081 18.7102C31.6596 18.839 31.3925 19.017 31.2069 19.2443C31.0213 19.4678 30.9285 19.7557 30.9285 20.108C30.9285 20.6383 31.1179 21.0492 31.4967 21.3409C31.8755 21.6288 32.3509 21.7727 32.9228 21.7727ZM40.2152 22.5V13.7727H41.1982V15.1136H41.272C41.4463 14.6742 41.7493 14.3201 42.1811 14.0511C42.6167 13.7784 43.1092 13.642 43.6584 13.642C43.7417 13.642 43.8345 13.6439 43.9368 13.6477C44.0391 13.6515 44.1243 13.6553 44.1925 13.6591V14.6875C44.147 14.6799 44.0675 14.6686 43.9539 14.6534C43.8402 14.6383 43.7171 14.6307 43.5845 14.6307C43.13 14.6307 42.7247 14.7273 42.3686 14.9205C42.0164 15.1098 41.738 15.3731 41.5334 15.7102C41.3289 16.0473 41.2266 16.4318 41.2266 16.8636V22.5H40.2152ZM50.8627 13.7727V14.6534H46.698V13.7727H50.8627ZM47.9991 11.6818H49.0161V20.2216C49.0161 20.5852 49.0786 20.8712 49.2036 21.0795C49.3286 21.2841 49.4915 21.4299 49.6923 21.517C49.893 21.6004 50.107 21.642 50.3343 21.642C50.4669 21.642 50.5805 21.6345 50.6752 21.6193C50.7699 21.6004 50.8533 21.5814 50.9252 21.5625L51.1411 22.4773C51.0427 22.5152 50.9214 22.5492 50.7775 22.5795C50.6336 22.6136 50.4555 22.6307 50.2434 22.6307C49.8722 22.6307 49.5142 22.5492 49.1695 22.3864C48.8286 22.2235 48.5483 21.9811 48.3286 21.6591C48.1089 21.3371 47.9991 20.9375 47.9991 20.4602V11.6818ZM54.1196 22.5V13.7727H55.1026V15.1136H55.1935C55.3677 14.6629 55.6575 14.3087 56.0628 14.0511C56.4719 13.7898 56.9624 13.6591 57.5344 13.6591C58.1366 13.6591 58.631 13.8011 59.0173 14.0852C59.4075 14.3655 59.6991 14.7519 59.8923 15.2443H59.9662C60.1632 14.7595 60.4832 14.375 60.9264 14.0909C61.3734 13.803 61.9151 13.6591 62.5514 13.6591C63.362 13.6591 64.0022 13.9148 64.4719 14.4261C64.9416 14.9337 65.1764 15.6761 65.1764 16.6534V22.5H64.1651V16.6534C64.1651 15.964 63.9889 15.447 63.6366 15.1023C63.2844 14.7576 62.8204 14.5852 62.2446 14.5852C61.5779 14.5852 61.0647 14.7898 60.7048 15.1989C60.345 15.608 60.1651 16.1269 60.1651 16.7557V22.5H59.131V16.5625C59.131 15.9716 58.9662 15.4943 58.6366 15.1307C58.3071 14.767 57.8431 14.5852 57.2446 14.5852C56.8431 14.5852 56.4813 14.6837 56.1594 14.8807C55.8412 15.0777 55.5893 15.3523 55.4037 15.7045C55.2219 16.053 55.131 16.4545 55.131 16.9091V22.5H54.1196ZM71.2515 22.6989C70.725 22.6989 70.2439 22.5966 69.8083 22.392C69.3727 22.1837 69.0261 21.8845 68.7685 21.4943C68.5109 21.1004 68.3822 20.6231 68.3822 20.0625C68.3822 19.6307 68.4636 19.267 68.6265 18.9716C68.7894 18.6761 69.0204 18.4337 69.3197 18.2443C69.6189 18.0549 69.9731 17.9053 70.3822 17.7955C70.7912 17.6856 71.242 17.6004 71.7344 17.5398C72.2231 17.4792 72.6359 17.4261 72.9731 17.3807C73.314 17.3352 73.5734 17.2633 73.7515 17.1648C73.9295 17.0663 74.0185 16.9072 74.0185 16.6875V16.483C74.0185 15.8883 73.8405 15.4205 73.4844 15.0795C73.1322 14.7348 72.6246 14.5625 71.9617 14.5625C71.3329 14.5625 70.8197 14.7008 70.4219 14.9773C70.028 15.2538 69.7515 15.5795 69.5924 15.9545L68.6322 15.608C68.8291 15.1307 69.1019 14.75 69.4503 14.4659C69.7988 14.178 70.189 13.9716 70.6208 13.8466C71.0526 13.7178 71.4901 13.6534 71.9333 13.6534C72.2666 13.6534 72.6132 13.697 72.9731 13.7841C73.3367 13.8712 73.6738 14.0227 73.9844 14.2386C74.295 14.4508 74.5469 14.7481 74.7401 15.1307C74.9333 15.5095 75.0299 15.9905 75.0299 16.5739V22.5H74.0185V21.1193H73.956C73.8348 21.3769 73.6549 21.6269 73.4162 21.8693C73.1776 22.1117 72.8784 22.3106 72.5185 22.4659C72.1587 22.6212 71.7363 22.6989 71.2515 22.6989ZM71.3878 21.7727C71.9257 21.7727 72.3916 21.6534 72.7856 21.4148C73.1795 21.1761 73.4825 20.8598 73.6947 20.4659C73.9106 20.0682 74.0185 19.6307 74.0185 19.1534V17.892C73.9428 17.964 73.8159 18.0284 73.6378 18.0852C73.4636 18.142 73.2609 18.1932 73.0299 18.2386C72.8026 18.2803 72.5753 18.3163 72.3481 18.3466C72.1208 18.3769 71.9162 18.4034 71.7344 18.4261C71.242 18.4867 70.8216 18.5814 70.4731 18.7102C70.1246 18.839 69.8575 19.017 69.6719 19.2443C69.4863 19.4678 69.3935 19.7557 69.3935 20.108C69.3935 20.6383 69.5829 21.0492 69.9617 21.3409C70.3405 21.6288 70.8159 21.7727 71.3878 21.7727ZM79.6916 17.0455V22.5H78.6802V13.7727H79.6632V15.142H79.7541C79.9586 14.6951 80.2768 14.3371 80.7086 14.0682C81.1442 13.7955 81.6821 13.6591 82.3223 13.6591C82.9094 13.6591 83.4245 13.7822 83.8677 14.0284C84.3147 14.2708 84.6613 14.6288 84.9075 15.1023C85.1575 15.5758 85.2825 16.1572 85.2825 16.8466V22.5H84.2711V16.9091C84.2711 16.1932 84.0704 15.6269 83.6689 15.2102C83.2711 14.7936 82.737 14.5852 82.0666 14.5852C81.6083 14.5852 81.2011 14.6837 80.845 14.8807C80.4889 15.0777 80.2067 15.3617 79.9984 15.733C79.7939 16.1004 79.6916 16.5379 79.6916 17.0455ZM88.9172 22.5V13.7727H89.9343V22.5H88.9172ZM89.4343 12.2727C89.2259 12.2727 89.0479 12.2027 88.9002 12.0625C88.7524 11.9186 88.6786 11.7462 88.6786 11.5455C88.6786 11.3447 88.7524 11.1742 88.9002 11.0341C89.0479 10.8902 89.2259 10.8182 89.4343 10.8182C89.6426 10.8182 89.8206 10.8902 89.9684 11.0341C90.1161 11.1742 90.1899 11.3447 90.1899 11.5455C90.1899 11.7462 90.1161 11.9186 89.9684 12.0625C89.8206 12.2027 89.6426 12.2727 89.4343 12.2727Z" fill="white"/>
<line x1="33.5" y1="28.5" x2="65.5" y2="28.5" stroke="white" stroke-width="2"/>
<path d="M37.2841 35.8636V47.5H34.8977L30.267 40.7841H30.1932V47.5H27.3807V35.8636H29.8011L34.3807 42.5682H34.4773V35.8636H37.2841ZM50.0355 41.6818C50.0355 42.9621 49.7893 44.0473 49.2969 44.9375C48.8045 45.8277 48.1378 46.5038 47.2969 46.9659C46.4598 47.428 45.5204 47.6591 44.4787 47.6591C43.4332 47.6591 42.492 47.4261 41.6548 46.9602C40.8177 46.4943 40.1529 45.8182 39.6605 44.9318C39.1719 44.0417 38.9276 42.9583 38.9276 41.6818C38.9276 40.4015 39.1719 39.3163 39.6605 38.4261C40.1529 37.536 40.8177 36.8598 41.6548 36.3977C42.492 35.9356 43.4332 35.7045 44.4787 35.7045C45.5204 35.7045 46.4598 35.9356 47.2969 36.3977C48.1378 36.8598 48.8045 37.536 49.2969 38.4261C49.7893 39.3163 50.0355 40.4015 50.0355 41.6818ZM47.1605 41.6818C47.1605 40.9242 47.0526 40.2841 46.8366 39.7614C46.6245 39.2386 46.3177 38.8428 45.9162 38.5739C45.5185 38.3049 45.0393 38.1705 44.4787 38.1705C43.9219 38.1705 43.4427 38.3049 43.0412 38.5739C42.6397 38.8428 42.331 39.2386 42.1151 39.7614C41.9029 40.2841 41.7969 40.9242 41.7969 41.6818C41.7969 42.4394 41.9029 43.0795 42.1151 43.6023C42.331 44.125 42.6397 44.5208 43.0412 44.7898C43.4427 45.0587 43.9219 45.1932 44.4787 45.1932C45.0393 45.1932 45.5185 45.0587 45.9162 44.7898C46.3177 44.5208 46.6245 44.125 46.8366 43.6023C47.0526 43.0795 47.1605 42.4394 47.1605 41.6818ZM51.6776 47.5V35.8636H54.4901V45.2159H59.331V47.5H51.6776ZM63.4602 47.5H60.4375L64.3636 35.8636H68.108L72.0341 47.5H69.0114L66.2784 38.7955H66.1875L63.4602 47.5ZM63.0568 42.9205H69.375V45.0568H63.0568V42.9205Z" fill="white"/>
</svg>
