<svg width="99" height="58" viewBox="0 0 99 58" fill="none" xmlns="http://www.w3.org/2000/svg">
<rect x="0.5" y="0.5" width="98" height="57" stroke="#484848"/>
<path d="M8.5625 22H7.44886L11.6818 10.3636H12.8182L17.0511 22H15.9375L12.2898 11.7443H12.2102L8.5625 22ZM9.36364 17.5398H15.1364V18.4943H9.36364V17.5398ZM19.7952 25.2727V13.2727H20.7782V14.9375H20.8975C21.0187 14.6761 21.1854 14.4091 21.3975 14.1364C21.6096 13.8598 21.8899 13.6269 22.2384 13.4375C22.5907 13.2481 23.0339 13.1534 23.568 13.1534C24.2877 13.1534 24.9164 13.3428 25.4543 13.7216C25.996 14.0966 26.4164 14.6231 26.7157 15.3011C27.0187 15.9754 27.1702 16.7614 27.1702 17.6591C27.1702 18.5606 27.0187 19.3504 26.7157 20.0284C26.4164 20.7064 25.996 21.2348 25.4543 21.6136C24.9164 21.9924 24.2914 22.1818 23.5793 22.1818C23.0528 22.1818 22.6115 22.0871 22.2555 21.8977C21.9032 21.7083 21.6172 21.4754 21.3975 21.1989C21.1816 20.9186 21.0149 20.6458 20.8975 20.3807H20.8066V25.2727H19.7952ZM20.7952 17.642C20.7952 18.3466 20.8994 18.9716 21.1077 19.517C21.3198 20.0587 21.6229 20.4848 22.0168 20.7955C22.4145 21.1023 22.8956 21.2557 23.46 21.2557C24.0395 21.2557 24.5282 21.0966 24.9259 20.7784C25.3274 20.4564 25.6323 20.0227 25.8407 19.4773C26.0528 18.9318 26.1589 18.3201 26.1589 17.642C26.1589 16.9716 26.0547 16.3674 25.8464 15.8295C25.6418 15.2917 25.3388 14.8655 24.9373 14.5511C24.5358 14.233 24.0433 14.0739 23.46 14.0739C22.8918 14.0739 22.4089 14.2273 22.0111 14.5341C21.6134 14.8371 21.3104 15.2576 21.102 15.7955C20.8975 16.3295 20.7952 16.9451 20.7952 17.642ZM32.7865 22.1989C32.26 22.1989 31.7789 22.0966 31.3433 21.892C30.9077 21.6837 30.5611 21.3845 30.3035 20.9943C30.0459 20.6004 29.9172 20.1231 29.9172 19.5625C29.9172 19.1307 29.9986 18.767 30.1615 18.4716C30.3244 18.1761 30.5554 17.9337 30.8547 17.7443C31.1539 17.5549 31.5081 17.4053 31.9172 17.2955C32.3263 17.1856 32.777 17.1004 33.2694 17.0398C33.7581 16.9792 34.1709 16.9261 34.5081 16.8807C34.849 16.8352 35.1084 16.7633 35.2865 16.6648C35.4645 16.5663 35.5535 16.4072 35.5535 16.1875V15.983C35.5535 15.3883 35.3755 14.9205 35.0194 14.5795C34.6672 14.2348 34.1596 14.0625 33.4967 14.0625C32.8679 14.0625 32.3547 14.2008 31.9569 14.4773C31.563 14.7538 31.2865 15.0795 31.1274 15.4545L30.1672 15.108C30.3641 14.6307 30.6369 14.25 30.9853 13.9659C31.3338 13.678 31.724 13.4716 32.1558 13.3466C32.5876 13.2178 33.0251 13.1534 33.4683 13.1534C33.8016 13.1534 34.1482 13.197 34.5081 13.2841C34.8717 13.3712 35.2088 13.5227 35.5194 13.7386C35.83 13.9508 36.0819 14.2481 36.2751 14.6307C36.4683 15.0095 36.5649 15.4905 36.5649 16.0739V22H35.5535V20.6193H35.491C35.3698 20.8769 35.1899 21.1269 34.9513 21.3693C34.7126 21.6117 34.4134 21.8106 34.0535 21.9659C33.6937 22.1212 33.2713 22.1989 32.7865 22.1989ZM32.9228 21.2727C33.4607 21.2727 33.9266 21.1534 34.3206 20.9148C34.7145 20.6761 35.0175 20.3598 35.2297 19.9659C35.4456 19.5682 35.5535 19.1307 35.5535 18.6534V17.392C35.4778 17.464 35.3509 17.5284 35.1728 17.5852C34.9986 17.642 34.7959 17.6932 34.5649 17.7386C34.3376 17.7803 34.1103 17.8163 33.8831 17.8466C33.6558 17.8769 33.4513 17.9034 33.2694 17.9261C32.777 17.9867 32.3566 18.0814 32.0081 18.2102C31.6596 18.339 31.3925 18.517 31.2069 18.7443C31.0213 18.9678 30.9285 19.2557 30.9285 19.608C30.9285 20.1383 31.1179 20.5492 31.4967 20.8409C31.8755 21.1288 32.3509 21.2727 32.9228 21.2727ZM40.2152 22V13.2727H41.1982V14.6136H41.272C41.4463 14.1742 41.7493 13.8201 42.1811 13.5511C42.6167 13.2784 43.1092 13.142 43.6584 13.142C43.7417 13.142 43.8345 13.1439 43.9368 13.1477C44.0391 13.1515 44.1243 13.1553 44.1925 13.1591V14.1875C44.147 14.1799 44.0675 14.1686 43.9539 14.1534C43.8402 14.1383 43.7171 14.1307 43.5845 14.1307C43.13 14.1307 42.7247 14.2273 42.3686 14.4205C42.0164 14.6098 41.738 14.8731 41.5334 15.2102C41.3289 15.5473 41.2266 15.9318 41.2266 16.3636V22H40.2152ZM50.8627 13.2727V14.1534H46.698V13.2727H50.8627ZM47.9991 11.1818H49.0161V19.7216C49.0161 20.0852 49.0786 20.3712 49.2036 20.5795C49.3286 20.7841 49.4915 20.9299 49.6923 21.017C49.893 21.1004 50.107 21.142 50.3343 21.142C50.4669 21.142 50.5805 21.1345 50.6752 21.1193C50.7699 21.1004 50.8533 21.0814 50.9252 21.0625L51.1411 21.9773C51.0427 22.0152 50.9214 22.0492 50.7775 22.0795C50.6336 22.1136 50.4555 22.1307 50.2434 22.1307C49.8722 22.1307 49.5142 22.0492 49.1695 21.8864C48.8286 21.7235 48.5483 21.4811 48.3286 21.1591C48.1089 20.8371 47.9991 20.4375 47.9991 19.9602V11.1818ZM54.1196 22V13.2727H55.1026V14.6136H55.1935C55.3677 14.1629 55.6575 13.8087 56.0628 13.5511C56.4719 13.2898 56.9624 13.1591 57.5344 13.1591C58.1366 13.1591 58.631 13.3011 59.0173 13.5852C59.4075 13.8655 59.6991 14.2519 59.8923 14.7443H59.9662C60.1632 14.2595 60.4832 13.875 60.9264 13.5909C61.3734 13.303 61.9151 13.1591 62.5514 13.1591C63.362 13.1591 64.0022 13.4148 64.4719 13.9261C64.9416 14.4337 65.1764 15.1761 65.1764 16.1534V22H64.1651V16.1534C64.1651 15.464 63.9889 14.947 63.6366 14.6023C63.2844 14.2576 62.8204 14.0852 62.2446 14.0852C61.5779 14.0852 61.0647 14.2898 60.7048 14.6989C60.345 15.108 60.1651 15.6269 60.1651 16.2557V22H59.131V16.0625C59.131 15.4716 58.9662 14.9943 58.6366 14.6307C58.3071 14.267 57.8431 14.0852 57.2446 14.0852C56.8431 14.0852 56.4813 14.1837 56.1594 14.3807C55.8412 14.5777 55.5893 14.8523 55.4037 15.2045C55.2219 15.553 55.131 15.9545 55.131 16.4091V22H54.1196ZM71.2515 22.1989C70.725 22.1989 70.2439 22.0966 69.8083 21.892C69.3727 21.6837 69.0261 21.3845 68.7685 20.9943C68.5109 20.6004 68.3822 20.1231 68.3822 19.5625C68.3822 19.1307 68.4636 18.767 68.6265 18.4716C68.7894 18.1761 69.0204 17.9337 69.3197 17.7443C69.6189 17.5549 69.9731 17.4053 70.3822 17.2955C70.7912 17.1856 71.242 17.1004 71.7344 17.0398C72.2231 16.9792 72.6359 16.9261 72.9731 16.8807C73.314 16.8352 73.5734 16.7633 73.7515 16.6648C73.9295 16.5663 74.0185 16.4072 74.0185 16.1875V15.983C74.0185 15.3883 73.8405 14.9205 73.4844 14.5795C73.1322 14.2348 72.6246 14.0625 71.9617 14.0625C71.3329 14.0625 70.8197 14.2008 70.4219 14.4773C70.028 14.7538 69.7515 15.0795 69.5924 15.4545L68.6322 15.108C68.8291 14.6307 69.1019 14.25 69.4503 13.9659C69.7988 13.678 70.189 13.4716 70.6208 13.3466C71.0526 13.2178 71.4901 13.1534 71.9333 13.1534C72.2666 13.1534 72.6132 13.197 72.9731 13.2841C73.3367 13.3712 73.6738 13.5227 73.9844 13.7386C74.295 13.9508 74.5469 14.2481 74.7401 14.6307C74.9333 15.0095 75.0299 15.4905 75.0299 16.0739V22H74.0185V20.6193H73.956C73.8348 20.8769 73.6549 21.1269 73.4162 21.3693C73.1776 21.6117 72.8784 21.8106 72.5185 21.9659C72.1587 22.1212 71.7363 22.1989 71.2515 22.1989ZM71.3878 21.2727C71.9257 21.2727 72.3916 21.1534 72.7856 20.9148C73.1795 20.6761 73.4825 20.3598 73.6947 19.9659C73.9106 19.5682 74.0185 19.1307 74.0185 18.6534V17.392C73.9428 17.464 73.8159 17.5284 73.6378 17.5852C73.4636 17.642 73.2609 17.6932 73.0299 17.7386C72.8026 17.7803 72.5753 17.8163 72.3481 17.8466C72.1208 17.8769 71.9162 17.9034 71.7344 17.9261C71.242 17.9867 70.8216 18.0814 70.4731 18.2102C70.1246 18.339 69.8575 18.517 69.6719 18.7443C69.4863 18.9678 69.3935 19.2557 69.3935 19.608C69.3935 20.1383 69.5829 20.5492 69.9617 20.8409C70.3405 21.1288 70.8159 21.2727 71.3878 21.2727ZM79.6916 16.5455V22H78.6802V13.2727H79.6632V14.642H79.7541C79.9586 14.1951 80.2768 13.8371 80.7086 13.5682C81.1442 13.2955 81.6821 13.1591 82.3223 13.1591C82.9094 13.1591 83.4245 13.2822 83.8677 13.5284C84.3147 13.7708 84.6613 14.1288 84.9075 14.6023C85.1575 15.0758 85.2825 15.6572 85.2825 16.3466V22H84.2711V16.4091C84.2711 15.6932 84.0704 15.1269 83.6689 14.7102C83.2711 14.2936 82.737 14.0852 82.0666 14.0852C81.6083 14.0852 81.2011 14.1837 80.845 14.3807C80.4889 14.5777 80.2067 14.8617 79.9984 15.233C79.7939 15.6004 79.6916 16.0379 79.6916 16.5455ZM88.9172 22V13.2727H89.9343V22H88.9172ZM89.4343 11.7727C89.2259 11.7727 89.0479 11.7027 88.9002 11.5625C88.7524 11.4186 88.6786 11.2462 88.6786 11.0455C88.6786 10.8447 88.7524 10.6742 88.9002 10.5341C89.0479 10.3902 89.2259 10.3182 89.4343 10.3182C89.6426 10.3182 89.8206 10.3902 89.9684 10.5341C90.1161 10.6742 90.1899 10.8447 90.1899 11.0455C90.1899 11.2462 90.1161 11.4186 89.9684 11.5625C89.8206 11.7027 89.6426 11.7727 89.4343 11.7727Z" fill="#484848"/>
<line x1="33.5" y1="28" x2="65.5" y2="28" stroke="#484848" stroke-width="2"/>
<path d="M37.2841 35.3636V47H34.8977L30.267 40.2841H30.1932V47H27.3807V35.3636H29.8011L34.3807 42.0682H34.4773V35.3636H37.2841ZM50.0355 41.1818C50.0355 42.4621 49.7893 43.5473 49.2969 44.4375C48.8045 45.3277 48.1378 46.0038 47.2969 46.4659C46.4598 46.928 45.5204 47.1591 44.4787 47.1591C43.4332 47.1591 42.492 46.9261 41.6548 46.4602C40.8177 45.9943 40.1529 45.3182 39.6605 44.4318C39.1719 43.5417 38.9276 42.4583 38.9276 41.1818C38.9276 39.9015 39.1719 38.8163 39.6605 37.9261C40.1529 37.036 40.8177 36.3598 41.6548 35.8977C42.492 35.4356 43.4332 35.2045 44.4787 35.2045C45.5204 35.2045 46.4598 35.4356 47.2969 35.8977C48.1378 36.3598 48.8045 37.036 49.2969 37.9261C49.7893 38.8163 50.0355 39.9015 50.0355 41.1818ZM47.1605 41.1818C47.1605 40.4242 47.0526 39.7841 46.8366 39.2614C46.6245 38.7386 46.3177 38.3428 45.9162 38.0739C45.5185 37.8049 45.0393 37.6705 44.4787 37.6705C43.9219 37.6705 43.4427 37.8049 43.0412 38.0739C42.6397 38.3428 42.331 38.7386 42.1151 39.2614C41.9029 39.7841 41.7969 40.4242 41.7969 41.1818C41.7969 41.9394 41.9029 42.5795 42.1151 43.1023C42.331 43.625 42.6397 44.0208 43.0412 44.2898C43.4427 44.5587 43.9219 44.6932 44.4787 44.6932C45.0393 44.6932 45.5185 44.5587 45.9162 44.2898C46.3177 44.0208 46.6245 43.625 46.8366 43.1023C47.0526 42.5795 47.1605 41.9394 47.1605 41.1818ZM51.6776 47V35.3636H54.4901V44.7159H59.331V47H51.6776ZM63.4602 47H60.4375L64.3636 35.3636H68.108L72.0341 47H69.0114L66.2784 38.2955H66.1875L63.4602 47ZM63.0568 42.4205H69.375V44.5568H63.0568V42.4205Z" fill="#484848"/>
</svg>
